<?xml version="1.0" standalone="yes"?>

<svg version="1.1" viewBox="0.0 0.0 1024.0 768.0" fill="none" stroke="none" stroke-linecap="square" stroke-miterlimit="10" xmlns="http://www.w3.org/2000/svg" xmlns:xlink="http://www.w3.org/1999/xlink"><clipPath id="p.0"><path d="m0 0l1024.0 0l0 768.0l-1024.0 0l0 -768.0z" clip-rule="nonzero"></path></clipPath><g clip-path="url(#p.0)"><path fill="#000000" fill-opacity="0.0" d="m0 0l1024.0 0l0 768.0l-1024.0 0z" fill-rule="evenodd"></path><path fill="#cfe2f3" d="m321.4549 87.0l438.07874 0l0 136.0l-438.07874 0z" fill-rule="evenodd"></path><path stroke="#000000" stroke-width="1.0" stroke-linejoin="round" stroke-linecap="butt" d="m321.4549 87.0l438.07874 0l0 136.0l-438.07874 0z" fill-rule="evenodd"></path><path fill="#cfe2f3" d="m321.4549 309.5l438.07874 0l0 136.0l-438.07874 0z" fill-rule="evenodd"></path><path stroke="#000000" stroke-width="1.0" stroke-linejoin="round" stroke-linecap="butt" d="m321.4549 309.5l438.07874 0l0 136.0l-438.07874 0z" fill-rule="evenodd"></path><path fill="#cfe2f3" d="m321.4549 532.0l438.07874 0l0 136.0l-438.07874 0z" fill-rule="evenodd"></path><path stroke="#000000" stroke-width="1.0" stroke-linejoin="round" stroke-linecap="butt" d="m321.4549 532.0l438.07874 0l0 136.0l-438.07874 0z" fill-rule="evenodd"></path><path fill="#000000" fill-opacity="0.0" d="m422.0 223.0l0 86.99213" fill-rule="evenodd"></path><path stroke="#000000" stroke-width="3.0" stroke-linejoin="round" stroke-linecap="butt" d="m422.0 223.0l0 68.99213" fill-rule="evenodd"></path><path fill="#000000" stroke="#000000" stroke-width="3.0" stroke-linecap="butt" d="m417.0448 291.99213l4.9552 13.614288l4.9552 -13.614288z" fill-rule="evenodd"></path><path fill="#000000" fill-opacity="0.0" d="m661.5 311.0l0 -89.00787" fill-rule="evenodd"></path><path stroke="#000000" stroke-width="3.0" stroke-linejoin="round" stroke-linecap="butt" d="m661.5 311.0l0 -71.00787" fill-rule="evenodd"></path><path fill="#000000" stroke="#000000" stroke-width="3.0" stroke-linecap="butt" d="m666.4552 239.99213l-4.9552 -13.614288l-4.9552 13.614288z" fill-rule="evenodd"></path><path fill="#000000" fill-opacity="0.0" d="m422.0 446.0l0 86.99213" fill-rule="evenodd"></path><path stroke="#000000" stroke-width="3.0" stroke-linejoin="round" stroke-linecap="butt" d="m422.0 446.0l0 68.99213" fill-rule="evenodd"></path><path fill="#000000" stroke="#000000" stroke-width="3.0" stroke-linecap="butt" d="m417.0448 514.9921l4.9552 13.614319l4.9552 -13.614319z" fill-rule="evenodd"></path><path fill="#000000" fill-opacity="0.0" d="m661.5 533.0l0 -86.99213" fill-rule="evenodd"></path><path stroke="#000000" stroke-width="3.0" stroke-linejoin="round" stroke-linecap="butt" d="m661.5 533.0l0 -68.99213" fill-rule="evenodd"></path><path fill="#000000" stroke="#000000" stroke-width="3.0" stroke-linecap="butt" d="m666.4552 464.00787l-4.9552 -13.614288l-4.9552 13.614288z" fill-rule="evenodd"></path><path fill="#cfe2f3" d="m383.08688 568.92914l77.82675 0l0 62.141724l-77.82675 0z" fill-rule="evenodd"></path><path stroke="#000000" stroke-width="1.0" stroke-linejoin="round" stroke-linecap="butt" d="m383.08688 568.92914l77.82675 0l0 62.141724l-77.82675 0z" fill-rule="evenodd"></path><path fill="#cfe2f3" d="m501.58032 568.92914l77.82678 0l0 62.141724l-77.82678 0z" fill-rule="evenodd"></path><path stroke="#000000" stroke-width="1.0" stroke-linejoin="round" stroke-linecap="butt" d="m501.58032 568.92914l77.82678 0l0 62.141724l-77.82678 0z" fill-rule="evenodd"></path><path fill="#cfe2f3" d="m622.5882 568.92914l77.82678 0l0 62.141724l-77.82678 0z" fill-rule="evenodd"></path><path stroke="#000000" stroke-width="1.0" stroke-linejoin="round" stroke-linecap="butt" d="m622.5882 568.92914l77.82678 0l0 62.141724l-77.82678 0z" fill-rule="evenodd"></path><path fill="#000000" fill-opacity="0.0" d="m460.91364 600.0l40.661438 0" fill-rule="evenodd"></path><path stroke="#000000" stroke-width="3.0" stroke-linejoin="round" stroke-linecap="butt" d="m460.91364 600.0l22.661407 0" fill-rule="evenodd"></path><path fill="#000000" stroke="#000000" stroke-width="3.0" stroke-linecap="butt" d="m483.57504 604.9552l13.614288 -4.9552l-13.614288 -4.9552z" fill-rule="evenodd"></path><path fill="#000000" fill-opacity="0.0" d="m579.4071 600.0l43.18109 0" fill-rule="evenodd"></path><path stroke="#000000" stroke-width="3.0" stroke-linejoin="round" stroke-linecap="butt" d="m579.40704 600.0l25.181152 0" fill-rule="evenodd"></path><path fill="#000000" stroke="#000000" stroke-width="3.0" stroke-linecap="butt" d="m604.5882 604.9552l13.614258 -4.9552l-13.614258 -4.9552z" fill-rule="evenodd"></path></g></svg>

